<svg id="Layer_1" data-name="Layer 1" xmlns="http://www.w3.org/2000/svg" xmlns:xlink="http://www.w3.org/1999/xlink" viewBox="0 0 200 200"><defs><style>.cls-1{fill:none;}.cls-2{fill:#ddd1c3;}.cls-3{clip-path:url(#clip-path);}</style><clipPath id="clip-path"><rect class="cls-1" x="135.61" y="-14.58" width="76.44" height="146.84"/></clipPath></defs><path class="cls-2" d="M127.63,64.32H94.06q4-18.64,1.16-26.7t-14-8q-12.36,0-19.59,13.87T46.72,93.7q-5.13,24.72-5.48,37.9T44.39,149q3.49,4.2,11.19,4.2,10.26,0,17.49-8.63T85.66,111h33.58a157.85,157.85,0,0,1-7.81,26A89.76,89.76,0,0,1,99.3,157.83a48.31,48.31,0,0,1-19.47,14.92q-11.89,5.13-27.75,5.13-14.69,0-24.25-4.31T13.61,162.26q-4.66-7-5.48-18.77a124,124,0,0,1,.58-23.44q1.39-11.65,5-28.68t7.11-28.68a150.45,150.45,0,0,1,9.32-23.43Q36,27.49,43.57,20.49A57.66,57.66,0,0,1,62.46,9.18a72.57,72.57,0,0,1,26-4.32q13.76,0,23,4.08t13.17,9.68q4,5.6,5.13,14.46a67.89,67.89,0,0,1,.47,15.62A152.88,152.88,0,0,1,127.63,64.32Z"/><path class="cls-2" d="M121.21,173.9l5.88-28H134l-.57,2.86h.11a10.21,10.21,0,0,1,7.8-3.59q5.25,0,5.51,4.48h.11a8.62,8.62,0,0,1,8-4.48q7,0,5.2,8.38l-4.27,20.33h-7.18l4.11-19.55c.52-2.43-.15-3.64-2-3.64q-3.74,0-4.73,4.78l-3.9,18.41h-7.18l4.11-19.55c.52-2.43-.15-3.64-2-3.64q-3.74,0-4.73,4.78l-3.9,18.41Z"/><g class="cls-3"><path class="cls-2" d="M128.08,142.87h32.18l-6.53,30.78H121.55Zm31-15.63H135.78l9.56-66L156.53,7.16h32.18L177.52,61.25Z"/></g></svg>