<svg id="Layer_1" data-name="Layer 1" xmlns="http://www.w3.org/2000/svg" xmlns:xlink="http://www.w3.org/1999/xlink" width="200" height="200" viewBox="0 0 200 200"><defs><clipPath id="clip-path"><rect x="133" y="1" width="63" height="139" fill="none"/></clipPath><clipPath id="clip-path-2"><rect x="139" y="-1" width="62" height="144" fill="none"/></clipPath><clipPath id="clip-path-3"><rect x="134" y="-7" width="66" height="145" fill="none"/></clipPath></defs><path d="M126.07,71.46H92.69q3.93-18.55,1.15-26.55t-13.91-8q-12.29,0-19.47,13.8t-14.84,50q-5.1,24.57-5.45,37.68t3.13,17.27q3.48,4.17,11.13,4.17,10.2,0,17.39-8.58t12.52-33.38h33.38A156.64,156.64,0,0,1,110,143.68,89.44,89.44,0,0,1,97.9,164.43a48,48,0,0,1-19.36,14.84q-11.82,5.1-27.59,5.1-14.61,0-24.11-4.29T12.7,168.83q-4.65-6.95-5.45-18.66a122.52,122.52,0,0,1,.58-23.3q1.38-11.59,5-28.52t7.07-28.52a149.26,149.26,0,0,1,9.28-23.3Q35,34.83,42.49,27.87A57.63,57.63,0,0,1,61.27,16.62a72.39,72.39,0,0,1,25.85-4.29q13.68,0,22.84,4.06T123.06,26q3.93,5.56,5.1,14.38a67.06,67.06,0,0,1,.46,15.53A151.11,151.11,0,0,1,126.07,71.46Z" fill="#3e78b2"/><path d="M119.69,180.41l5.84-27.82h6.83l-.57,2.84h.1a10.16,10.16,0,0,1,7.76-3.57c3.48,0,5.31,1.49,5.48,4.45h.1a8.61,8.61,0,0,1,8-4.45q6.93,0,5.17,8.33l-4.24,20.22H147L151.08,161c.52-2.42-.16-3.62-2-3.62q-3.72,0-4.7,4.75l-3.88,18.31h-7.14L137.43,161c.51-2.42-.16-3.62-2-3.62q-3.72,0-4.71,4.75l-3.88,18.31Z" fill="#3e78b2"/><g clip-path="url(#clip-path)"><path d="M126.52,149.55h32L152,180.16H120ZM157.36,134H134.17l9.51-65.62L154.8,14.61h32L175.67,68.4Z" fill="#3e78b2"/></g><path d="M136.07,70.46H102.69q3.93-18.55,1.15-26.55t-13.91-8q-12.29,0-19.47,13.8t-14.84,50q-5.1,24.57-5.45,37.68t3.13,17.27q3.48,4.17,11.13,4.17,10.2,0,17.39-8.58t12.52-33.38h33.38A156.64,156.64,0,0,1,120,142.68a89.44,89.44,0,0,1-12.06,20.75,48,48,0,0,1-19.36,14.84q-11.82,5.1-27.59,5.1-14.61,0-24.11-4.29T22.7,167.83q-4.65-6.95-5.45-18.66a122.52,122.52,0,0,1,.58-23.3q1.38-11.59,5-28.52t7.07-28.52a149.26,149.26,0,0,1,9.28-23.3Q45,33.83,52.49,26.87A57.63,57.63,0,0,1,71.27,15.62a72.39,72.39,0,0,1,25.85-4.29q13.68,0,22.84,4.06T133.06,25q3.93,5.56,5.1,14.38a67.06,67.06,0,0,1,.46,15.53A151.11,151.11,0,0,1,136.07,70.46Z" fill="#f41101"/><path d="M129.69,179.41l5.84-27.82h6.83l-.57,2.84h.1a10.16,10.16,0,0,1,7.76-3.57c3.48,0,5.31,1.49,5.48,4.45h.1a8.61,8.61,0,0,1,8-4.45q6.93,0,5.17,8.33l-4.24,20.22H157L161.08,160c.52-2.42-.16-3.62-2-3.62q-3.72,0-4.7,4.75l-3.88,18.31h-7.14L147.43,160c.51-2.42-.16-3.62-2-3.62q-3.72,0-4.71,4.75l-3.88,18.31Z" fill="#f41101"/><g clip-path="url(#clip-path-2)"><path d="M136.52,148.55h32L162,179.16H130ZM167.36,133H144.17l9.51-65.62L164.8,13.61h32L185.67,67.4Z" fill="#f41101"/></g><path d="M131.16,71H97.77q3.95-18.55,1.16-26.55T85,36.44q-12.3,0-19.48,13.8t-14.83,50q-5.12,24.58-5.45,37.68t3.13,17.27c2.32,2.78,6,4.17,11.13,4.17q10.18,0,17.38-8.57t12.52-33.39h33.39A156.59,156.59,0,0,1,115,143.21,89,89,0,0,1,103,164,48.16,48.16,0,0,1,83.63,178.8Q71.79,183.9,56,183.9q-14.61,0-24.12-4.29T17.78,168.37q-4.64-7-5.45-18.67a124.19,124.19,0,0,1,.58-23.3q1.39-11.59,5-28.52T25,69.37a149.89,149.89,0,0,1,9.27-23.31Q40,34.36,47.57,27.4A57.65,57.65,0,0,1,66.35,16.16a72.27,72.27,0,0,1,25.86-4.29q13.68,0,22.83,4.05t13.1,9.63q3.95,5.55,5.1,14.37a67.12,67.12,0,0,1,.47,15.53A156.32,156.32,0,0,1,131.16,71Z" fill="#02111b"/><path d="M124.77,179.94l5.85-27.82h6.82l-.57,2.84H137a10.18,10.18,0,0,1,7.76-3.56c3.48,0,5.3,1.48,5.48,4.44h.1a8.59,8.59,0,0,1,8-4.44q6.93,0,5.17,8.32l-4.24,20.22h-7.14l4.09-19.44q.77-3.62-2-3.62c-2.48,0-4.05,1.58-4.71,4.76l-3.88,18.3h-7.13l4.08-19.44q.78-3.62-2-3.62c-2.48,0-4.05,1.58-4.7,4.76l-3.88,18.3Z" fill="#02111b"/><g clip-path="url(#clip-path-3)"><path d="M131.6,149.08h32l-6.49,30.61h-32Zm30.84-15.53H139.26l9.5-65.61,11.13-53.79h32L180.76,67.94Z" fill="#02111b"/></g></svg>