<svg id="Layer_1" data-name="Layer 1" xmlns="http://www.w3.org/2000/svg" xmlns:xlink="http://www.w3.org/1999/xlink" width="200" height="200" viewBox="0 0 200 200"><defs><clipPath id="clip-path"><rect x="133" y="1" width="63" height="139" fill="none"/></clipPath><clipPath id="clip-path-2"><rect x="139" y="-1" width="62" height="144" fill="none"/></clipPath><clipPath id="clip-path-3"><rect x="139.2" y="-9.37" width="76.44" height="146.84" fill="none"/></clipPath></defs><path d="M126.07,71.46H92.69q3.93-18.55,1.15-26.55t-13.91-8q-12.29,0-19.47,13.8t-14.84,50q-5.1,24.57-5.45,37.68t3.13,17.27q3.48,4.17,11.13,4.17,10.2,0,17.39-8.58t12.52-33.38h33.38A156.64,156.64,0,0,1,110,143.68,89.44,89.44,0,0,1,97.9,164.43a48,48,0,0,1-19.36,14.84q-11.82,5.1-27.59,5.1-14.61,0-24.11-4.29T12.7,168.83q-4.65-6.95-5.45-18.66a122.52,122.52,0,0,1,.58-23.3q1.38-11.59,5-28.52t7.07-28.52a149.26,149.26,0,0,1,9.28-23.3Q35,34.83,42.49,27.87A57.63,57.63,0,0,1,61.27,16.62a72.39,72.39,0,0,1,25.85-4.29q13.68,0,22.84,4.06T123.06,26q3.93,5.56,5.1,14.38a67.06,67.06,0,0,1,.46,15.53A151.11,151.11,0,0,1,126.07,71.46Z" fill="#3e78b2"/><path d="M119.69,180.41l5.84-27.82h6.83l-.57,2.84h.1a10.16,10.16,0,0,1,7.76-3.57c3.48,0,5.31,1.49,5.48,4.45h.1a8.61,8.61,0,0,1,8-4.45q6.93,0,5.17,8.33l-4.24,20.22H147L151.08,161c.52-2.42-.16-3.62-2-3.62q-3.72,0-4.7,4.75l-3.88,18.31h-7.14L137.43,161c.51-2.42-.16-3.62-2-3.62q-3.72,0-4.71,4.75l-3.88,18.31Z" fill="#3e78b2"/><g clip-path="url(#clip-path)"><path d="M126.52,149.55h32L152,180.16H120ZM157.36,134H134.17l9.51-65.62L154.8,14.61h32L175.67,68.4Z" fill="#3e78b2"/></g><path d="M136.07,70.46H102.69q3.93-18.55,1.15-26.55t-13.91-8q-12.29,0-19.47,13.8t-14.84,50q-5.1,24.57-5.45,37.68t3.13,17.27q3.48,4.17,11.13,4.17,10.2,0,17.39-8.58t12.52-33.38h33.38A156.64,156.64,0,0,1,120,142.68a89.44,89.44,0,0,1-12.06,20.75,48,48,0,0,1-19.36,14.84q-11.82,5.1-27.59,5.1-14.61,0-24.11-4.29T22.7,167.83q-4.65-6.95-5.45-18.66a122.52,122.52,0,0,1,.58-23.3q1.38-11.59,5-28.52t7.07-28.52a149.26,149.26,0,0,1,9.28-23.3Q45,33.83,52.49,26.87A57.63,57.63,0,0,1,71.27,15.62a72.39,72.39,0,0,1,25.85-4.29q13.68,0,22.84,4.06T133.06,25q3.93,5.56,5.1,14.38a67.06,67.06,0,0,1,.46,15.53A151.11,151.11,0,0,1,136.07,70.46Z" fill="#f41101"/><path d="M129.69,179.41l5.84-27.82h6.83l-.57,2.84h.1a10.16,10.16,0,0,1,7.76-3.57c3.48,0,5.31,1.49,5.48,4.45h.1a8.61,8.61,0,0,1,8-4.45q6.93,0,5.17,8.33l-4.24,20.22H157L161.08,160c.52-2.42-.16-3.62-2-3.62q-3.72,0-4.7,4.75l-3.88,18.31h-7.14L147.43,160c.51-2.42-.16-3.62-2-3.62q-3.72,0-4.71,4.75l-3.88,18.31Z" fill="#f41101"/><g clip-path="url(#clip-path-2)"><path d="M136.52,148.55h32L162,179.16H130ZM167.36,133H144.17l9.51-65.62L164.8,13.61h32L185.67,67.4Z" fill="#f41101"/></g><path d="M131.23,69.54H97.65q4-18.66,1.17-26.7t-14-8.05q-12.37,0-19.59,13.88T50.32,98.92q-5.13,24.72-5.48,37.89T48,154.18q3.51,4.2,11.2,4.2,10.26,0,17.49-8.63t12.59-33.58h33.57a156.59,156.59,0,0,1-7.81,26A89.52,89.52,0,0,1,102.9,163,48.4,48.4,0,0,1,83.43,178q-11.9,5.11-27.75,5.13-14.68,0-24.25-4.32T17.2,167.47q-4.66-7-5.48-18.77a124.73,124.73,0,0,1,.59-23.43q1.39-11.65,5-28.68t7.11-28.68a149.64,149.64,0,0,1,9.33-23.44Q39.58,32.69,47.17,25.7A57.9,57.9,0,0,1,66.06,14.39a72.71,72.71,0,0,1,26-4.31q13.75,0,23,4.08t13.18,9.68q4,5.6,5.13,14.45a67.92,67.92,0,0,1,.46,15.63A153,153,0,0,1,131.23,69.54Z" fill="#fffcff"/><path d="M124.81,179.12l5.88-28h6.86L137,154h.1a10.21,10.21,0,0,1,7.8-3.59c3.51,0,5.34,1.49,5.52,4.47h.1a8.65,8.65,0,0,1,8-4.47q7,0,5.2,8.37l-4.26,20.34h-7.18l4.11-19.56c.52-2.42-.16-3.64-2-3.64-2.5,0-4.07,1.6-4.73,4.79l-3.9,18.41h-7.18l4.11-19.56c.52-2.42-.16-3.64-2-3.64q-3.75,0-4.73,4.79L132,179.12Z" fill="#fffcff"/><g clip-path="url(#clip-path-3)"><path d="M131.68,148.08h32.18l-6.53,30.78H125.15Zm31-15.62H139.37l9.56-66,11.2-54.1h32.18l-11.2,54.1Z" fill="#fffcff"/></g></svg>