<svg id="Layer_1" data-name="Layer 1" xmlns="http://www.w3.org/2000/svg" xmlns:xlink="http://www.w3.org/1999/xlink" viewBox="0 0 200 200"><defs><style>.cls-1{fill:none;}.cls-2{fill:#02111b;}.cls-3{clip-path:url(#clip-path);}</style><clipPath id="clip-path"><rect class="cls-1" x="137.86" y="-13.46" width="66" height="145"/></clipPath></defs><path class="cls-2" d="M135,64.53H101.63Q105.58,46,102.79,38T88.88,30Q76.6,30,69.4,43.78t-14.83,50q-5.12,24.57-5.45,37.68t3.13,17.27q3.48,4.17,11.13,4.17,10.2,0,17.39-8.58T93.28,110.9h33.39a157.61,157.61,0,0,1-7.76,25.85,89.44,89.44,0,0,1-12.06,20.75,48.16,48.16,0,0,1-19.36,14.84q-11.82,5.1-27.59,5.1-14.61,0-24.11-4.29T21.64,161.9Q17,155,16.19,143.24a124.19,124.19,0,0,1,.58-23.3q1.39-11.59,5-28.52T28.83,62.9A150.18,150.18,0,0,1,38.1,39.6q5.81-11.7,13.34-18.66A57.63,57.63,0,0,1,70.22,9.69,72.39,72.39,0,0,1,96.07,5.4q13.68,0,22.84,4.06T132,19.08q3.94,5.57,5.1,14.38A67.11,67.11,0,0,1,137.57,49,156.79,156.79,0,0,1,135,64.53Z"/><path class="cls-2" d="M128.63,173.48l5.85-27.82h6.82l-.57,2.84h.11a10.16,10.16,0,0,1,7.76-3.57c3.48,0,5.3,1.49,5.48,4.45h.1a8.6,8.6,0,0,1,8-4.45q6.93,0,5.17,8.33l-4.24,20.22h-7.14L160,154c.51-2.42-.16-3.62-2-3.62q-3.72,0-4.71,4.75l-3.88,18.31h-7.13L146.37,154c.52-2.42-.15-3.62-2-3.62q-3.72,0-4.7,4.75l-3.88,18.31Z"/><g class="cls-3"><path class="cls-2" d="M135.46,142.62h32L161,173.23H129Zm30.84-15.53H143.12l9.5-65.62L163.75,7.68h32L184.62,61.47Z"/></g></svg>